<!-- Cherry blossom (sakura) favicon. Five notched petals in the site's
     blossom pink (#ffb7c5) with #ffd24d stamens — matching SakuraPetals. -->
<svg xmlns="http://www.w3.org/2000/svg" viewBox="0 0 64 64" width="64" height="64">
  <defs>
    <radialGradient id="petal" cx="32" cy="32" r="26" gradientUnits="userSpaceOnUse">
      <stop offset="0" stop-color="#ffd6e3"/>
      <stop offset="0.65" stop-color="#ffb7c5"/>
      <stop offset="1" stop-color="#ff9bb6"/>
    </radialGradient>
    <path id="p" fill="url(#petal)" d="M 32 31
      C 23.5 31, 17.5 22.5, 19 15.5
      C 20 9.5, 24.5 6.5, 28 7.5
      C 30.2 8.1, 31 10, 32 12.5
      C 33 10, 33.8 8.1, 36 7.5
      C 39.5 6.5, 44 9.5, 45 15.5
      C 46.5 22.5, 40.5 31, 32 31 Z"/>
  </defs>
  <g>
    <use href="#p"/>
    <use href="#p" transform="rotate(72 32 32)"/>
    <use href="#p" transform="rotate(144 32 32)"/>
    <use href="#p" transform="rotate(216 32 32)"/>
    <use href="#p" transform="rotate(288 32 32)"/>
  </g>
  <g fill="#f3574d">
    <circle cx="32" cy="24.5" r="1.4"/>
    <circle cx="39.13" cy="29.68" r="1.4"/>
    <circle cx="36.41" cy="38.07" r="1.4"/>
    <circle cx="27.59" cy="38.07" r="1.4"/>
    <circle cx="24.87" cy="29.68" r="1.4"/>
  </g>
  <circle cx="32" cy="32" r="4.2" fill="#ffd24d"/>
</svg>
